<svg width="426" height="120" viewBox="0 0 426 120" fill="none" xmlns="http://www.w3.org/2000/svg">
	    <title>Crafting Connections Logo</title>
    <desc>Created with Figma</desc>
<g clip-path="url(#clip0_107_3)">
<path d="M42.752 49.512C39.3387 49.512 36.1813 48.9573 33.28 47.848C30.4213 46.696 27.9253 45.096 25.792 43.048C23.7013 40.9573 22.0587 38.5253 20.864 35.752C19.6693 32.9787 19.072 29.928 19.072 26.6C19.072 23.272 19.6693 20.2213 20.864 17.448C22.0587 14.6747 23.7227 12.264 25.856 10.216C27.9893 8.12533 30.4853 6.52533 33.344 5.416C36.2453 4.264 39.4027 3.688 42.816 3.688C46.272 3.688 49.4507 4.28533 52.352 5.48C55.296 6.632 57.792 8.36 59.84 10.664L55.68 14.696C53.9733 12.904 52.0533 11.5813 49.92 10.728C47.7867 9.832 45.504 9.384 43.072 9.384C40.5547 9.384 38.208 9.81067 36.032 10.664C33.8987 11.5173 32.0427 12.712 30.464 14.248C28.8853 15.784 27.648 17.6187 26.752 19.752C25.8987 21.8427 25.472 24.1253 25.472 26.6C25.472 29.0747 25.8987 31.3787 26.752 33.512C27.648 35.6027 28.8853 37.416 30.464 38.952C32.0427 40.488 33.8987 41.6827 36.032 42.536C38.208 43.3893 40.5547 43.816 43.072 43.816C45.504 43.816 47.7867 43.3893 49.92 42.536C52.0533 41.64 53.9733 40.2747 55.68 38.44L59.84 42.472C57.792 44.776 55.296 46.5253 52.352 47.72C49.4507 48.9147 46.2507 49.512 42.752 49.512ZM68.074 49V15.08H73.962V24.296L73.386 21.992C74.3247 19.6453 75.9033 17.8533 78.122 16.616C80.3407 15.3787 83.0713 14.76 86.314 14.76V20.712C86.058 20.6693 85.802 20.648 85.546 20.648C85.3327 20.648 85.1193 20.648 84.906 20.648C81.6207 20.648 79.018 21.6293 77.098 23.592C75.178 25.5547 74.218 28.392 74.218 32.104V49H68.074ZM112.443 49V41.832L112.123 40.488V28.264C112.123 25.6613 111.355 23.656 109.819 22.248C108.325 20.7973 106.064 20.072 103.035 20.072C101.029 20.072 99.0665 20.4133 97.1465 21.096C95.2265 21.736 93.6052 22.6107 92.2825 23.72L89.7225 19.112C91.4718 17.704 93.5625 16.6373 95.9945 15.912C98.4692 15.144 101.051 14.76 103.739 14.76C108.389 14.76 111.973 15.8907 114.491 18.152C117.008 20.4133 118.267 23.8693 118.267 28.52V49H112.443ZM101.307 49.384C98.7892 49.384 96.5705 48.9573 94.6505 48.104C92.7732 47.2507 91.3225 46.0773 90.2985 44.584C89.2745 43.048 88.7625 41.32 88.7625 39.4C88.7625 37.5653 89.1892 35.9013 90.0425 34.408C90.9385 32.9147 92.3678 31.72 94.3305 30.824C96.3358 29.928 99.0238 29.48 102.395 29.48H113.147V33.896H102.651C99.5785 33.896 97.5092 34.408 96.4425 35.432C95.3758 36.456 94.8425 37.6933 94.8425 39.144C94.8425 40.808 95.5038 42.152 96.8265 43.176C98.1492 44.1573 99.9838 44.648 102.331 44.648C104.635 44.648 106.64 44.136 108.347 43.112C110.096 42.088 111.355 40.5947 112.123 38.632L113.339 42.856C112.528 44.8613 111.099 46.4613 109.051 47.656C107.003 48.808 104.421 49.384 101.307 49.384ZM130.533 49V12.072C130.533 8.744 131.493 6.09866 133.413 4.136C135.375 2.13066 138.149 1.128 141.733 1.128C143.055 1.128 144.314 1.29867 145.509 1.64C146.746 1.93866 147.791 2.42933 148.645 3.112L146.789 7.784C146.149 7.272 145.423 6.888 144.613 6.632C143.802 6.33333 142.949 6.184 142.053 6.184C140.261 6.184 138.895 6.696 137.957 7.72C137.018 8.70133 136.549 10.1733 136.549 12.136V16.68L136.677 19.496V49H130.533ZM124.773 20.136V15.08H146.405V20.136H124.773ZM163.847 49.384C160.434 49.384 157.788 48.4667 155.911 46.632C154.034 44.7973 153.095 42.1733 153.095 38.76V7.656H159.239V38.504C159.239 40.3387 159.687 41.7467 160.583 42.728C161.522 43.7093 162.844 44.2 164.551 44.2C166.471 44.2 168.071 43.6667 169.351 42.6L171.271 47.016C170.332 47.8267 169.202 48.424 167.879 48.808C166.599 49.192 165.255 49.384 163.847 49.384ZM147.335 20.136V15.08H168.967V20.136H147.335ZM178.699 49V15.08H184.843V49H178.699ZM181.771 8.552C180.576 8.552 179.574 8.168 178.763 7.4C177.995 6.632 177.611 5.69333 177.611 4.584C177.611 3.432 177.995 2.472 178.763 1.704C179.574 0.935998 180.576 0.551998 181.771 0.551998C182.966 0.551998 183.947 0.935998 184.715 1.704C185.526 2.42933 185.931 3.34666 185.931 4.456C185.931 5.608 185.547 6.58933 184.779 7.4C184.011 8.168 183.008 8.552 181.771 8.552ZM214.686 14.76C217.459 14.76 219.891 15.2933 221.982 16.36C224.115 17.4267 225.779 19.048 226.974 21.224C228.169 23.4 228.766 26.152 228.766 29.48V49H222.622V30.184C222.622 26.8987 221.811 24.424 220.19 22.76C218.611 21.096 216.371 20.264 213.47 20.264C211.294 20.264 209.395 20.6907 207.774 21.544C206.153 22.3973 204.894 23.656 203.998 25.32C203.145 26.984 202.718 29.0533 202.718 31.528V49H196.574V15.08H202.462V24.232L201.502 21.8C202.611 19.5813 204.318 17.8533 206.622 16.616C208.926 15.3787 211.614 14.76 214.686 14.76ZM254.985 61.8C251.87 61.8 248.841 61.352 245.897 60.456C242.995 59.6027 240.627 58.3653 238.793 56.744L241.737 52.008C243.315 53.3733 245.257 54.44 247.561 55.208C249.865 56.0187 252.275 56.424 254.793 56.424C258.803 56.424 261.747 55.4853 263.625 53.608C265.502 51.7307 266.441 48.872 266.441 45.032V37.864L267.081 31.144L266.761 24.36V15.08H272.585V44.392C272.585 50.3653 271.091 54.76 268.104 57.576C265.118 60.392 260.745 61.8 254.985 61.8ZM254.217 47.592C250.931 47.592 247.987 46.9093 245.385 45.544C242.825 44.136 240.777 42.1947 239.241 39.72C237.747 37.2453 237.001 34.3867 237.001 31.144C237.001 27.8587 237.747 25 239.241 22.568C240.777 20.0933 242.825 18.1733 245.385 16.808C247.987 15.4427 250.931 14.76 254.217 14.76C257.118 14.76 259.763 15.3573 262.153 16.552C264.542 17.704 266.441 19.496 267.849 21.928C269.299 24.36 270.025 27.432 270.025 31.144C270.025 34.8133 269.299 37.864 267.849 40.296C266.441 42.728 264.542 44.5627 262.153 45.8C259.763 46.9947 257.118 47.592 254.217 47.592ZM254.921 42.216C257.182 42.216 259.187 41.7467 260.937 40.808C262.686 39.8693 264.051 38.568 265.033 36.904C266.057 35.24 266.569 33.32 266.569 31.144C266.569 28.968 266.057 27.048 265.033 25.384C264.051 23.72 262.686 22.44 260.937 21.544C259.187 20.6053 257.182 20.136 254.921 20.136C252.659 20.136 250.633 20.6053 248.841 21.544C247.091 22.44 245.705 23.72 244.681 25.384C243.699 27.048 243.209 28.968 243.209 31.144C243.209 33.32 243.699 35.24 244.681 36.904C245.705 38.568 247.091 39.8693 248.841 40.808C250.633 41.7467 252.659 42.216 254.921 42.216Z" fill="#28282B"/>
<path d="M42.752 117.512C39.3387 117.512 36.1813 116.957 33.28 115.848C30.4213 114.696 27.9253 113.096 25.792 111.048C23.7013 108.957 22.0587 106.525 20.864 103.752C19.6693 100.979 19.072 97.928 19.072 94.6C19.072 91.272 19.6693 88.2213 20.864 85.448C22.0587 82.6747 23.7227 80.264 25.856 78.216C27.9893 76.1253 30.4853 74.5253 33.344 73.416C36.2453 72.264 39.4027 71.688 42.816 71.688C46.272 71.688 49.4507 72.2853 52.352 73.48C55.296 74.632 57.792 76.36 59.84 78.664L55.68 82.696C53.9733 80.904 52.0533 79.5813 49.92 78.728C47.7867 77.832 45.504 77.384 43.072 77.384C40.5547 77.384 38.208 77.8107 36.032 78.664C33.8987 79.5173 32.0427 80.712 30.464 82.248C28.8853 83.784 27.648 85.6187 26.752 87.752C25.8987 89.8427 25.472 92.1253 25.472 94.6C25.472 97.0747 25.8987 99.3787 26.752 101.512C27.648 103.603 28.8853 105.416 30.464 106.952C32.0427 108.488 33.8987 109.683 36.032 110.536C38.208 111.389 40.5547 111.816 43.072 111.816C45.504 111.816 47.7867 111.389 49.92 110.536C52.0533 109.64 53.9733 108.275 55.68 106.44L59.84 110.472C57.792 112.776 55.296 114.525 52.352 115.72C49.4507 116.915 46.2507 117.512 42.752 117.512ZM81.1645 117.384C77.7512 117.384 74.7218 116.637 72.0765 115.144C69.4312 113.651 67.3405 111.603 65.8045 109C64.2685 106.355 63.5005 103.368 63.5005 100.04C63.5005 96.6693 64.2685 93.6827 65.8045 91.08C67.3405 88.4773 69.4312 86.4507 72.0765 85C74.7218 83.5067 77.7512 82.76 81.1645 82.76C84.5352 82.76 87.5432 83.5067 90.1885 85C92.8765 86.4507 94.9672 88.4773 96.4605 91.08C97.9965 93.64 98.7645 96.6267 98.7645 100.04C98.7645 103.411 97.9965 106.397 96.4605 109C94.9672 111.603 92.8765 113.651 90.1885 115.144C87.5432 116.637 84.5352 117.384 81.1645 117.384ZM81.1645 112.008C83.3405 112.008 85.2818 111.517 86.9885 110.536C88.7378 109.555 90.1032 108.168 91.0845 106.376C92.0658 104.541 92.5565 102.429 92.5565 100.04C92.5565 97.608 92.0658 95.5173 91.0845 93.768C90.1032 91.976 88.7378 90.5893 86.9885 89.608C85.2818 88.6267 83.3405 88.136 81.1645 88.136C78.9885 88.136 77.0472 88.6267 75.3405 89.608C73.6338 90.5893 72.2685 91.976 71.2445 93.768C70.2205 95.5173 69.7085 97.608 69.7085 100.04C69.7085 102.429 70.2205 104.541 71.2445 106.376C72.2685 108.168 73.6338 109.555 75.3405 110.536C77.0472 111.517 78.9885 112.008 81.1645 112.008ZM125.374 82.76C128.147 82.76 130.579 83.2933 132.67 84.36C134.803 85.4267 136.467 87.048 137.662 89.224C138.856 91.4 139.454 94.152 139.454 97.48V117H133.31V98.184C133.31 94.8987 132.499 92.424 130.878 90.76C129.299 89.096 127.059 88.264 124.158 88.264C121.982 88.264 120.083 88.6907 118.462 89.544C116.84 90.3973 115.582 91.656 114.686 93.32C113.832 94.984 113.406 97.0533 113.406 99.528V117H107.262V83.08H113.15V92.232L112.19 89.8C113.299 87.5813 115.006 85.8533 117.31 84.616C119.614 83.3787 122.302 82.76 125.374 82.76ZM168.936 82.76C171.709 82.76 174.141 83.2933 176.232 84.36C178.365 85.4267 180.029 87.048 181.224 89.224C182.419 91.4 183.016 94.152 183.016 97.48V117H176.872V98.184C176.872 94.8987 176.061 92.424 174.44 90.76C172.861 89.096 170.621 88.264 167.72 88.264C165.544 88.264 163.645 88.6907 162.024 89.544C160.403 90.3973 159.144 91.656 158.248 93.32C157.395 94.984 156.968 97.0533 156.968 99.528V117H150.824V83.08H156.712V92.232L155.752 89.8C156.861 87.5813 158.568 85.8533 160.872 84.616C163.176 83.3787 165.864 82.76 168.936 82.76ZM209.491 117.384C205.864 117.384 202.664 116.637 199.891 115.144C197.16 113.651 195.027 111.603 193.491 109C191.997 106.397 191.251 103.411 191.251 100.04C191.251 96.6693 191.976 93.6827 193.427 91.08C194.92 88.4773 196.947 86.4507 199.507 85C202.109 83.5067 205.032 82.76 208.275 82.76C211.56 82.76 214.461 83.4853 216.979 84.936C219.496 86.3867 221.459 88.4347 222.867 91.08C224.317 93.6827 225.043 96.7333 225.043 100.232C225.043 100.488 225.021 100.787 224.979 101.128C224.979 101.469 224.957 101.789 224.915 102.088H196.051V97.672H221.715L219.219 99.208C219.261 97.032 218.813 95.0907 217.875 93.384C216.936 91.6773 215.635 90.3547 213.971 89.416C212.349 88.4347 210.451 87.944 208.275 87.944C206.141 87.944 204.243 88.4347 202.579 89.416C200.915 90.3547 199.613 91.6987 198.675 93.448C197.736 95.1547 197.267 97.1173 197.267 99.336V100.36C197.267 102.621 197.779 104.648 198.803 106.44C199.869 108.189 201.341 109.555 203.219 110.536C205.096 111.517 207.251 112.008 209.683 112.008C211.688 112.008 213.501 111.667 215.123 110.984C216.787 110.301 218.237 109.277 219.475 107.912L222.867 111.88C221.331 113.672 219.411 115.037 217.107 115.976C214.845 116.915 212.307 117.384 209.491 117.384ZM248.358 117.384C244.902 117.384 241.809 116.637 239.078 115.144C236.39 113.651 234.278 111.603 232.742 109C231.206 106.397 230.438 103.411 230.438 100.04C230.438 96.6693 231.206 93.6827 232.742 91.08C234.278 88.4773 236.39 86.4507 239.078 85C241.809 83.5067 244.902 82.76 248.358 82.76C251.43 82.76 254.161 83.3787 256.55 84.616C258.982 85.8107 260.859 87.6027 262.182 89.992L257.51 93C256.401 91.336 255.035 90.12 253.414 89.352C251.835 88.5413 250.129 88.136 248.294 88.136C246.075 88.136 244.091 88.6267 242.342 89.608C240.593 90.5893 239.206 91.976 238.182 93.768C237.158 95.5173 236.646 97.608 236.646 100.04C236.646 102.472 237.158 104.584 238.182 106.376C239.206 108.168 240.593 109.555 242.342 110.536C244.091 111.517 246.075 112.008 248.294 112.008C250.129 112.008 251.835 111.624 253.414 110.856C255.035 110.045 256.401 108.808 257.51 107.144L262.182 110.088C260.859 112.435 258.982 114.248 256.55 115.528C254.161 116.765 251.43 117.384 248.358 117.384ZM282.222 117.384C278.809 117.384 276.163 116.467 274.286 114.632C272.409 112.797 271.47 110.173 271.47 106.76V75.656H277.614V106.504C277.614 108.339 278.062 109.747 278.958 110.728C279.897 111.709 281.219 112.2 282.926 112.2C284.846 112.2 286.446 111.667 287.726 110.6L289.646 115.016C288.707 115.827 287.577 116.424 286.254 116.808C284.974 117.192 283.63 117.384 282.222 117.384ZM265.71 88.136V83.08H287.342V88.136H265.71ZM297.074 117V83.08H303.218V117H297.074ZM300.146 76.552C298.951 76.552 297.949 76.168 297.138 75.4C296.37 74.632 295.986 73.6933 295.986 72.584C295.986 71.432 296.37 70.472 297.138 69.704C297.949 68.936 298.951 68.552 300.146 68.552C301.341 68.552 302.322 68.936 303.09 69.704C303.901 70.4293 304.306 71.3467 304.306 72.456C304.306 73.608 303.922 74.5893 303.154 75.4C302.386 76.168 301.383 76.552 300.146 76.552ZM329.477 117.384C326.064 117.384 323.034 116.637 320.389 115.144C317.744 113.651 315.653 111.603 314.117 109C312.581 106.355 311.813 103.368 311.813 100.04C311.813 96.6693 312.581 93.6827 314.117 91.08C315.653 88.4773 317.744 86.4507 320.389 85C323.034 83.5067 326.064 82.76 329.477 82.76C332.848 82.76 335.856 83.5067 338.501 85C341.189 86.4507 343.28 88.4773 344.773 91.08C346.309 93.64 347.077 96.6267 347.077 100.04C347.077 103.411 346.309 106.397 344.773 109C343.28 111.603 341.189 113.651 338.501 115.144C335.856 116.637 332.848 117.384 329.477 117.384ZM329.477 112.008C331.653 112.008 333.594 111.517 335.301 110.536C337.05 109.555 338.416 108.168 339.397 106.376C340.378 104.541 340.869 102.429 340.869 100.04C340.869 97.608 340.378 95.5173 339.397 93.768C338.416 91.976 337.05 90.5893 335.301 89.608C333.594 88.6267 331.653 88.136 329.477 88.136C327.301 88.136 325.36 88.6267 323.653 89.608C321.946 90.5893 320.581 91.976 319.557 93.768C318.533 95.5173 318.021 97.608 318.021 100.04C318.021 102.429 318.533 104.541 319.557 106.376C320.581 108.168 321.946 109.555 323.653 110.536C325.36 111.517 327.301 112.008 329.477 112.008ZM373.686 82.76C376.459 82.76 378.891 83.2933 380.982 84.36C383.115 85.4267 384.779 87.048 385.974 89.224C387.169 91.4 387.766 94.152 387.766 97.48V117H381.622V98.184C381.622 94.8987 380.811 92.424 379.19 90.76C377.611 89.096 375.371 88.264 372.47 88.264C370.294 88.264 368.395 88.6907 366.774 89.544C365.153 90.3973 363.894 91.656 362.998 93.32C362.145 94.984 361.718 97.0533 361.718 99.528V117H355.574V83.08H361.462V92.232L360.502 89.8C361.611 87.5813 363.318 85.8533 365.622 84.616C367.926 83.3787 370.614 82.76 373.686 82.76ZM408.865 117.384C406.049 117.384 403.361 117 400.801 116.232C398.283 115.464 396.299 114.525 394.849 113.416L397.409 108.552C398.859 109.533 400.651 110.365 402.785 111.048C404.918 111.731 407.094 112.072 409.312 112.072C412.171 112.072 414.219 111.667 415.457 110.856C416.737 110.045 417.377 108.915 417.377 107.464C417.377 106.397 416.993 105.565 416.225 104.968C415.457 104.371 414.433 103.923 413.153 103.624C411.915 103.325 410.529 103.069 408.993 102.856C407.457 102.6 405.921 102.301 404.385 101.96C402.849 101.576 401.441 101.064 400.161 100.424C398.881 99.7413 397.857 98.824 397.089 97.672C396.321 96.4773 395.937 94.8987 395.937 92.936C395.937 90.888 396.513 89.096 397.665 87.56C398.817 86.024 400.438 84.8507 402.529 84.04C404.662 83.1867 407.179 82.76 410.081 82.76C412.299 82.76 414.539 83.0373 416.801 83.592C419.105 84.104 420.982 84.8507 422.433 85.832L419.809 90.696C418.273 89.672 416.673 88.968 415.009 88.584C413.345 88.2 411.681 88.008 410.017 88.008C407.329 88.008 405.323 88.456 404.001 89.352C402.678 90.2053 402.017 91.3147 402.017 92.68C402.017 93.832 402.401 94.728 403.169 95.368C403.979 95.9653 405.003 96.4347 406.241 96.776C407.521 97.1173 408.929 97.416 410.465 97.672C412.001 97.8853 413.537 98.184 415.073 98.568C416.609 98.9093 417.995 99.4 419.233 100.04C420.513 100.68 421.537 101.576 422.305 102.728C423.115 103.88 423.521 105.416 423.521 107.336C423.521 109.384 422.923 111.155 421.729 112.648C420.534 114.141 418.849 115.315 416.673 116.168C414.497 116.979 411.894 117.384 408.865 117.384Z" fill="#28282B"/>
<line x1="4" y1="-1" x2="4" y2="121" stroke="#28282B" stroke-width="8"/>
</g>
<defs>
<clipPath id="clip0_107_3">
<rect width="426" height="120" fill="white"/>
</clipPath>
</defs>
</svg>
