<svg width="512" height="512" viewBox="0 0 512 512" fill="none" xmlns="http://www.w3.org/2000/svg">
<g clip-path="url(#clip0_117_2)">
<rect width="512" height="512" rx="256" fill="#51B37F"/>
<path d="M262.72 448.24C234.28 448.24 208 443.56 183.88 434.2C159.76 424.48 138.88 410.98 121.24 393.7C103.6 376.42 89.74 356.08 79.66 332.68C69.94 309.28 65.08 283.72 65.08 256C65.08 228.28 69.94 202.72 79.66 179.32C89.74 155.92 103.6 135.58 121.24 118.3C139.24 101.02 160.3 87.7 184.42 78.34C208.54 68.62 234.82 63.76 263.26 63.76C290.62 63.76 316.36 68.44 340.48 77.8C364.6 86.8 384.94 100.48 401.5 118.84L376.12 144.22C360.64 128.38 343.54 117.04 324.82 110.2C306.1 103 285.94 99.4 264.34 99.4C241.66 99.4 220.6 103.36 201.16 111.28C181.72 118.84 164.8 129.82 150.4 144.22C136 158.26 124.66 174.82 116.38 193.9C108.46 212.62 104.5 233.32 104.5 256C104.5 278.68 108.46 299.56 116.38 318.64C124.66 337.36 136 353.92 150.4 368.32C164.8 382.36 181.72 393.34 201.16 401.26C220.6 408.82 241.66 412.6 264.34 412.6C285.94 412.6 306.1 409 324.82 401.8C343.54 394.6 360.64 383.08 376.12 367.24L401.5 392.62C384.94 410.98 364.6 424.84 340.48 434.2C316.36 443.56 290.44 448.24 262.72 448.24Z" fill="white"/>
<path d="M269.04 355.24C254.107 355.24 240.293 352.813 227.6 347.96C215.093 342.92 204.173 335.92 194.84 326.96C185.693 317.813 178.507 307.173 173.28 295.04C168.053 282.907 165.44 269.56 165.44 255C165.44 240.44 168.053 227.093 173.28 214.96C178.507 202.827 185.787 192.28 195.12 183.32C204.453 174.173 215.373 167.173 227.88 162.32C240.573 157.28 254.387 154.76 269.32 154.76C284.44 154.76 298.347 157.373 311.04 162.6C323.92 167.64 334.84 175.2 343.8 185.28L325.6 202.92C318.133 195.08 309.733 189.293 300.4 185.56C291.067 181.64 281.08 179.68 270.44 179.68C259.427 179.68 249.16 181.547 239.64 185.28C230.307 189.013 222.187 194.24 215.28 200.96C208.373 207.68 202.96 215.707 199.04 225.04C195.307 234.187 193.44 244.173 193.44 255C193.44 265.827 195.307 275.907 199.04 285.24C202.96 294.387 208.373 302.32 215.28 309.04C222.187 315.76 230.307 320.987 239.64 324.72C249.16 328.453 259.427 330.32 270.44 330.32C281.08 330.32 291.067 328.453 300.4 324.72C309.733 320.8 318.133 314.827 325.6 306.8L343.8 324.44C334.84 334.52 323.92 342.173 311.04 347.4C298.347 352.627 284.347 355.24 269.04 355.24Z" fill="white"/>
</g>
<defs>
<clipPath id="clip0_117_2">
<rect width="512" height="512" rx="256" fill="white"/>
</clipPath>
</defs>
</svg>
