<svg width="410" height="120" viewBox="0 0 410 120" fill="none" xmlns="http://www.w3.org/2000/svg">
<g clip-path="url(#clip0_118_2)">
<path d="M26.752 50.512C23.3387 50.512 20.1813 49.9573 17.28 48.848C14.4213 47.696 11.9253 46.096 9.792 44.048C7.70133 41.9573 6.05867 39.5253 4.864 36.752C3.66933 33.9787 3.072 30.928 3.072 27.6C3.072 24.272 3.66933 21.2213 4.864 18.448C6.05867 15.6747 7.72267 13.264 9.856 11.216C11.9893 9.12533 14.4853 7.52533 17.344 6.416C20.2453 5.264 23.4027 4.688 26.816 4.688C30.272 4.688 33.4507 5.28533 36.352 6.48C39.296 7.632 41.792 9.36 43.84 11.664L39.68 15.696C37.9733 13.904 36.0533 12.5813 33.92 11.728C31.7867 10.832 29.504 10.384 27.072 10.384C24.5547 10.384 22.208 10.8107 20.032 11.664C17.8987 12.5173 16.0427 13.712 14.464 15.248C12.8853 16.784 11.648 18.6187 10.752 20.752C9.89867 22.8427 9.472 25.1253 9.472 27.6C9.472 30.0747 9.89867 32.3787 10.752 34.512C11.648 36.6027 12.8853 38.416 14.464 39.952C16.0427 41.488 17.8987 42.6827 20.032 43.536C22.208 44.3893 24.5547 44.816 27.072 44.816C29.504 44.816 31.7867 44.3893 33.92 43.536C36.0533 42.64 37.9733 41.2747 39.68 39.44L43.84 43.472C41.792 45.776 39.296 47.5253 36.352 48.72C33.4507 49.9147 30.2507 50.512 26.752 50.512ZM52.074 50V16.08H57.962V25.296L57.386 22.992C58.3247 20.6453 59.9033 18.8533 62.122 17.616C64.3407 16.3787 67.0713 15.76 70.314 15.76V21.712C70.058 21.6693 69.802 21.648 69.546 21.648C69.3327 21.648 69.1193 21.648 68.906 21.648C65.6207 21.648 63.018 22.6293 61.098 24.592C59.178 26.5547 58.218 29.392 58.218 33.104V50H52.074ZM96.4425 50V42.832L96.1225 41.488V29.264C96.1225 26.6613 95.3545 24.656 93.8185 23.248C92.3252 21.7973 90.0638 21.072 87.0345 21.072C85.0292 21.072 83.0665 21.4133 81.1465 22.096C79.2265 22.736 77.6052 23.6107 76.2825 24.72L73.7225 20.112C75.4718 18.704 77.5625 17.6373 79.9945 16.912C82.4692 16.144 85.0505 15.76 87.7385 15.76C92.3892 15.76 95.9732 16.8907 98.4905 19.152C101.008 21.4133 102.267 24.8693 102.267 29.52V50H96.4425ZM85.3065 50.384C82.7892 50.384 80.5705 49.9573 78.6505 49.104C76.7732 48.2507 75.3225 47.0773 74.2985 45.584C73.2745 44.048 72.7625 42.32 72.7625 40.4C72.7625 38.5653 73.1892 36.9013 74.0425 35.408C74.9385 33.9147 76.3678 32.72 78.3305 31.824C80.3358 30.928 83.0238 30.48 86.3945 30.48H97.1465V34.896H86.6505C83.5785 34.896 81.5092 35.408 80.4425 36.432C79.3758 37.456 78.8425 38.6933 78.8425 40.144C78.8425 41.808 79.5038 43.152 80.8265 44.176C82.1492 45.1573 83.9838 45.648 86.3305 45.648C88.6345 45.648 90.6398 45.136 92.3465 44.112C94.0958 43.088 95.3545 41.5947 96.1225 39.632L97.3385 43.856C96.5278 45.8613 95.0985 47.4613 93.0505 48.656C91.0025 49.808 88.4212 50.384 85.3065 50.384ZM114.533 50V13.072C114.533 9.744 115.493 7.09866 117.413 5.136C119.375 3.13066 122.149 2.128 125.733 2.128C127.055 2.128 128.314 2.29867 129.509 2.64C130.746 2.93866 131.791 3.42933 132.645 4.112L130.789 8.784C130.149 8.272 129.423 7.888 128.613 7.632C127.802 7.33333 126.949 7.184 126.053 7.184C124.261 7.184 122.895 7.696 121.957 8.72C121.018 9.70133 120.549 11.1733 120.549 13.136V17.68L120.677 20.496V50H114.533ZM108.773 21.136V16.08H130.405V21.136H108.773ZM147.847 50.384C144.434 50.384 141.788 49.4667 139.911 47.632C138.034 45.7973 137.095 43.1733 137.095 39.76V8.656H143.239V39.504C143.239 41.3387 143.687 42.7467 144.583 43.728C145.522 44.7093 146.844 45.2 148.551 45.2C150.471 45.2 152.071 44.6667 153.351 43.6L155.271 48.016C154.332 48.8267 153.202 49.424 151.879 49.808C150.599 50.192 149.255 50.384 147.847 50.384ZM131.335 21.136V16.08H152.967V21.136H131.335ZM162.699 50V16.08H168.843V50H162.699ZM165.771 9.552C164.576 9.552 163.574 9.168 162.763 8.4C161.995 7.632 161.611 6.69333 161.611 5.584C161.611 4.432 161.995 3.472 162.763 2.704C163.574 1.936 164.576 1.552 165.771 1.552C166.966 1.552 167.947 1.936 168.715 2.704C169.526 3.42933 169.931 4.34666 169.931 5.456C169.931 6.608 169.547 7.58933 168.779 8.4C168.011 9.168 167.008 9.552 165.771 9.552ZM198.686 15.76C201.459 15.76 203.891 16.2933 205.982 17.36C208.115 18.4267 209.779 20.048 210.974 22.224C212.169 24.4 212.766 27.152 212.766 30.48V50H206.622V31.184C206.622 27.8987 205.811 25.424 204.19 23.76C202.611 22.096 200.371 21.264 197.47 21.264C195.294 21.264 193.395 21.6907 191.774 22.544C190.153 23.3973 188.894 24.656 187.998 26.32C187.145 27.984 186.718 30.0533 186.718 32.528V50H180.574V16.08H186.462V25.232L185.502 22.8C186.611 20.5813 188.318 18.8533 190.622 17.616C192.926 16.3787 195.614 15.76 198.686 15.76ZM238.985 62.8C235.87 62.8 232.841 62.352 229.897 61.456C226.995 60.6027 224.627 59.3653 222.793 57.744L225.737 53.008C227.315 54.3733 229.257 55.44 231.561 56.208C233.865 57.0187 236.275 57.424 238.793 57.424C242.803 57.424 245.747 56.4853 247.625 54.608C249.502 52.7307 250.441 49.872 250.441 46.032V38.864L251.081 32.144L250.761 25.36V16.08H256.585V45.392C256.585 51.3653 255.091 55.76 252.104 58.576C249.118 61.392 244.745 62.8 238.985 62.8ZM238.217 48.592C234.931 48.592 231.987 47.9093 229.385 46.544C226.825 45.136 224.777 43.1947 223.241 40.72C221.747 38.2453 221.001 35.3867 221.001 32.144C221.001 28.8587 221.747 26 223.241 23.568C224.777 21.0933 226.825 19.1733 229.385 17.808C231.987 16.4427 234.931 15.76 238.217 15.76C241.118 15.76 243.763 16.3573 246.153 17.552C248.542 18.704 250.441 20.496 251.849 22.928C253.299 25.36 254.025 28.432 254.025 32.144C254.025 35.8133 253.299 38.864 251.849 41.296C250.441 43.728 248.542 45.5627 246.153 46.8C243.763 47.9947 241.118 48.592 238.217 48.592ZM238.921 43.216C241.182 43.216 243.187 42.7467 244.937 41.808C246.686 40.8693 248.051 39.568 249.033 37.904C250.057 36.24 250.569 34.32 250.569 32.144C250.569 29.968 250.057 28.048 249.033 26.384C248.051 24.72 246.686 23.44 244.937 22.544C243.187 21.6053 241.182 21.136 238.921 21.136C236.659 21.136 234.633 21.6053 232.841 22.544C231.091 23.44 229.705 24.72 228.681 26.384C227.699 28.048 227.209 29.968 227.209 32.144C227.209 34.32 227.699 36.24 228.681 37.904C229.705 39.568 231.091 40.8693 232.841 41.808C234.633 42.7467 236.659 43.216 238.921 43.216Z" fill="#28282B"/>
<path d="M26.752 118.512C23.3387 118.512 20.1813 117.957 17.28 116.848C14.4213 115.696 11.9253 114.096 9.792 112.048C7.70133 109.957 6.05867 107.525 4.864 104.752C3.66933 101.979 3.072 98.928 3.072 95.6C3.072 92.272 3.66933 89.2213 4.864 86.448C6.05867 83.6747 7.72267 81.264 9.856 79.216C11.9893 77.1253 14.4853 75.5253 17.344 74.416C20.2453 73.264 23.4027 72.688 26.816 72.688C30.272 72.688 33.4507 73.2853 36.352 74.48C39.296 75.632 41.792 77.36 43.84 79.664L39.68 83.696C37.9733 81.904 36.0533 80.5813 33.92 79.728C31.7867 78.832 29.504 78.384 27.072 78.384C24.5547 78.384 22.208 78.8107 20.032 79.664C17.8987 80.5173 16.0427 81.712 14.464 83.248C12.8853 84.784 11.648 86.6187 10.752 88.752C9.89867 90.8427 9.472 93.1253 9.472 95.6C9.472 98.0747 9.89867 100.379 10.752 102.512C11.648 104.603 12.8853 106.416 14.464 107.952C16.0427 109.488 17.8987 110.683 20.032 111.536C22.208 112.389 24.5547 112.816 27.072 112.816C29.504 112.816 31.7867 112.389 33.92 111.536C36.0533 110.64 37.9733 109.275 39.68 107.44L43.84 111.472C41.792 113.776 39.296 115.525 36.352 116.72C33.4507 117.915 30.2507 118.512 26.752 118.512ZM65.1645 118.384C61.7512 118.384 58.7218 117.637 56.0765 116.144C53.4312 114.651 51.3405 112.603 49.8045 110C48.2685 107.355 47.5005 104.368 47.5005 101.04C47.5005 97.6693 48.2685 94.6827 49.8045 92.08C51.3405 89.4773 53.4312 87.4507 56.0765 86C58.7218 84.5067 61.7512 83.76 65.1645 83.76C68.5352 83.76 71.5432 84.5067 74.1885 86C76.8765 87.4507 78.9672 89.4773 80.4605 92.08C81.9965 94.64 82.7645 97.6267 82.7645 101.04C82.7645 104.411 81.9965 107.397 80.4605 110C78.9672 112.603 76.8765 114.651 74.1885 116.144C71.5432 117.637 68.5352 118.384 65.1645 118.384ZM65.1645 113.008C67.3405 113.008 69.2818 112.517 70.9885 111.536C72.7378 110.555 74.1032 109.168 75.0845 107.376C76.0658 105.541 76.5565 103.429 76.5565 101.04C76.5565 98.608 76.0658 96.5173 75.0845 94.768C74.1032 92.976 72.7378 91.5893 70.9885 90.608C69.2818 89.6267 67.3405 89.136 65.1645 89.136C62.9885 89.136 61.0472 89.6267 59.3405 90.608C57.6338 91.5893 56.2685 92.976 55.2445 94.768C54.2205 96.5173 53.7085 98.608 53.7085 101.04C53.7085 103.429 54.2205 105.541 55.2445 107.376C56.2685 109.168 57.6338 110.555 59.3405 111.536C61.0472 112.517 62.9885 113.008 65.1645 113.008ZM109.374 83.76C112.147 83.76 114.579 84.2933 116.67 85.36C118.803 86.4267 120.467 88.048 121.662 90.224C122.856 92.4 123.454 95.152 123.454 98.48V118H117.31V99.184C117.31 95.8987 116.499 93.424 114.878 91.76C113.299 90.096 111.059 89.264 108.158 89.264C105.982 89.264 104.083 89.6907 102.462 90.544C100.84 91.3973 99.5815 92.656 98.6855 94.32C97.8322 95.984 97.4055 98.0533 97.4055 100.528V118H91.2615V84.08H97.1495V93.232L96.1895 90.8C97.2988 88.5813 99.0055 86.8533 101.31 85.616C103.614 84.3787 106.302 83.76 109.374 83.76ZM152.936 83.76C155.709 83.76 158.141 84.2933 160.232 85.36C162.365 86.4267 164.029 88.048 165.224 90.224C166.419 92.4 167.016 95.152 167.016 98.48V118H160.872V99.184C160.872 95.8987 160.061 93.424 158.44 91.76C156.861 90.096 154.621 89.264 151.72 89.264C149.544 89.264 147.645 89.6907 146.024 90.544C144.403 91.3973 143.144 92.656 142.248 94.32C141.395 95.984 140.968 98.0533 140.968 100.528V118H134.824V84.08H140.712V93.232L139.752 90.8C140.861 88.5813 142.568 86.8533 144.872 85.616C147.176 84.3787 149.864 83.76 152.936 83.76ZM193.491 118.384C189.864 118.384 186.664 117.637 183.891 116.144C181.16 114.651 179.027 112.603 177.491 110C175.997 107.397 175.251 104.411 175.251 101.04C175.251 97.6693 175.976 94.6827 177.427 92.08C178.92 89.4773 180.947 87.4507 183.507 86C186.109 84.5067 189.032 83.76 192.275 83.76C195.56 83.76 198.461 84.4853 200.979 85.936C203.496 87.3867 205.459 89.4347 206.867 92.08C208.317 94.6827 209.043 97.7333 209.043 101.232C209.043 101.488 209.021 101.787 208.979 102.128C208.979 102.469 208.957 102.789 208.915 103.088H180.051V98.672H205.715L203.219 100.208C203.261 98.032 202.813 96.0907 201.875 94.384C200.936 92.6773 199.635 91.3547 197.971 90.416C196.349 89.4347 194.451 88.944 192.275 88.944C190.141 88.944 188.243 89.4347 186.579 90.416C184.915 91.3547 183.613 92.6987 182.675 94.448C181.736 96.1547 181.267 98.1173 181.267 100.336V101.36C181.267 103.621 181.779 105.648 182.803 107.44C183.869 109.189 185.341 110.555 187.219 111.536C189.096 112.517 191.251 113.008 193.683 113.008C195.688 113.008 197.501 112.667 199.123 111.984C200.787 111.301 202.237 110.277 203.475 108.912L206.867 112.88C205.331 114.672 203.411 116.037 201.107 116.976C198.845 117.915 196.307 118.384 193.491 118.384ZM232.358 118.384C228.902 118.384 225.809 117.637 223.078 116.144C220.39 114.651 218.278 112.603 216.742 110C215.206 107.397 214.438 104.411 214.438 101.04C214.438 97.6693 215.206 94.6827 216.742 92.08C218.278 89.4773 220.39 87.4507 223.078 86C225.809 84.5067 228.902 83.76 232.358 83.76C235.43 83.76 238.161 84.3787 240.55 85.616C242.982 86.8107 244.859 88.6027 246.182 90.992L241.51 94C240.401 92.336 239.035 91.12 237.414 90.352C235.835 89.5413 234.129 89.136 232.294 89.136C230.075 89.136 228.091 89.6267 226.342 90.608C224.593 91.5893 223.206 92.976 222.182 94.768C221.158 96.5173 220.646 98.608 220.646 101.04C220.646 103.472 221.158 105.584 222.182 107.376C223.206 109.168 224.593 110.555 226.342 111.536C228.091 112.517 230.075 113.008 232.294 113.008C234.129 113.008 235.835 112.624 237.414 111.856C239.035 111.045 240.401 109.808 241.51 108.144L246.182 111.088C244.859 113.435 242.982 115.248 240.55 116.528C238.161 117.765 235.43 118.384 232.358 118.384ZM266.222 118.384C262.809 118.384 260.163 117.467 258.286 115.632C256.409 113.797 255.47 111.173 255.47 107.76V76.656H261.614V107.504C261.614 109.339 262.062 110.747 262.958 111.728C263.897 112.709 265.219 113.2 266.926 113.2C268.846 113.2 270.446 112.667 271.726 111.6L273.646 116.016C272.707 116.827 271.577 117.424 270.254 117.808C268.974 118.192 267.63 118.384 266.222 118.384ZM249.71 89.136V84.08H271.342V89.136H249.71ZM281.074 118V84.08H287.218V118H281.074ZM284.146 77.552C282.951 77.552 281.949 77.168 281.138 76.4C280.37 75.632 279.986 74.6933 279.986 73.584C279.986 72.432 280.37 71.472 281.138 70.704C281.949 69.936 282.951 69.552 284.146 69.552C285.341 69.552 286.322 69.936 287.09 70.704C287.901 71.4293 288.306 72.3467 288.306 73.456C288.306 74.608 287.922 75.5893 287.154 76.4C286.386 77.168 285.383 77.552 284.146 77.552ZM313.477 118.384C310.064 118.384 307.034 117.637 304.389 116.144C301.744 114.651 299.653 112.603 298.117 110C296.581 107.355 295.813 104.368 295.813 101.04C295.813 97.6693 296.581 94.6827 298.117 92.08C299.653 89.4773 301.744 87.4507 304.389 86C307.034 84.5067 310.064 83.76 313.477 83.76C316.848 83.76 319.856 84.5067 322.501 86C325.189 87.4507 327.28 89.4773 328.773 92.08C330.309 94.64 331.077 97.6267 331.077 101.04C331.077 104.411 330.309 107.397 328.773 110C327.28 112.603 325.189 114.651 322.501 116.144C319.856 117.637 316.848 118.384 313.477 118.384ZM313.477 113.008C315.653 113.008 317.594 112.517 319.301 111.536C321.05 110.555 322.416 109.168 323.397 107.376C324.378 105.541 324.869 103.429 324.869 101.04C324.869 98.608 324.378 96.5173 323.397 94.768C322.416 92.976 321.05 91.5893 319.301 90.608C317.594 89.6267 315.653 89.136 313.477 89.136C311.301 89.136 309.36 89.6267 307.653 90.608C305.946 91.5893 304.581 92.976 303.557 94.768C302.533 96.5173 302.021 98.608 302.021 101.04C302.021 103.429 302.533 105.541 303.557 107.376C304.581 109.168 305.946 110.555 307.653 111.536C309.36 112.517 311.301 113.008 313.477 113.008ZM357.686 83.76C360.459 83.76 362.891 84.2933 364.982 85.36C367.115 86.4267 368.779 88.048 369.974 90.224C371.169 92.4 371.766 95.152 371.766 98.48V118H365.622V99.184C365.622 95.8987 364.811 93.424 363.19 91.76C361.611 90.096 359.371 89.264 356.47 89.264C354.294 89.264 352.395 89.6907 350.774 90.544C349.153 91.3973 347.894 92.656 346.998 94.32C346.145 95.984 345.718 98.0533 345.718 100.528V118H339.574V84.08H345.462V93.232L344.502 90.8C345.611 88.5813 347.318 86.8533 349.622 85.616C351.926 84.3787 354.614 83.76 357.686 83.76ZM392.865 118.384C390.049 118.384 387.361 118 384.801 117.232C382.283 116.464 380.299 115.525 378.849 114.416L381.409 109.552C382.859 110.533 384.651 111.365 386.785 112.048C388.918 112.731 391.094 113.072 393.312 113.072C396.171 113.072 398.219 112.667 399.457 111.856C400.737 111.045 401.377 109.915 401.377 108.464C401.377 107.397 400.993 106.565 400.225 105.968C399.457 105.371 398.433 104.923 397.153 104.624C395.915 104.325 394.529 104.069 392.993 103.856C391.457 103.6 389.921 103.301 388.385 102.96C386.849 102.576 385.441 102.064 384.161 101.424C382.881 100.741 381.857 99.824 381.089 98.672C380.321 97.4773 379.937 95.8987 379.937 93.936C379.937 91.888 380.513 90.096 381.665 88.56C382.817 87.024 384.438 85.8507 386.529 85.04C388.662 84.1867 391.179 83.76 394.081 83.76C396.299 83.76 398.539 84.0373 400.801 84.592C403.105 85.104 404.982 85.8507 406.433 86.832L403.809 91.696C402.273 90.672 400.673 89.968 399.009 89.584C397.345 89.2 395.681 89.008 394.017 89.008C391.329 89.008 389.323 89.456 388.001 90.352C386.678 91.2053 386.017 92.3147 386.017 93.68C386.017 94.832 386.401 95.728 387.169 96.368C387.979 96.9653 389.003 97.4347 390.241 97.776C391.521 98.1173 392.929 98.416 394.465 98.672C396.001 98.8853 397.537 99.184 399.073 99.568C400.609 99.9093 401.995 100.4 403.233 101.04C404.513 101.68 405.537 102.576 406.305 103.728C407.115 104.88 407.521 106.416 407.521 108.336C407.521 110.384 406.923 112.155 405.729 113.648C404.534 115.141 402.849 116.315 400.673 117.168C398.497 117.979 395.894 118.384 392.865 118.384Z" fill="#28282B"/>
</g>
<defs>
<clipPath id="clip0_118_2">
<rect width="410" height="120" fill="white"/>
</clipPath>
</defs>
</svg>
