<?xml version="1.0" standalone="no"?>
<!DOCTYPE svg PUBLIC "-//W3C//DTD SVG 20010904//EN"
 "http://www.w3.org/TR/2001/REC-SVG-20010904/DTD/svg10.dtd">
<svg version="1.0" xmlns="http://www.w3.org/2000/svg"
 width="700.000000pt" height="700.000000pt" viewBox="0 0 700.000000 700.000000"
 preserveAspectRatio="xMidYMid meet">
<metadata>
Created by potrace 1.14, written by Peter Selinger 2001-2017
</metadata>
<g transform="translate(0.000000,700.000000) scale(0.100000,-0.100000)"
fill="#000000" stroke="none">
<path d="M0 3500 l0 -3500 355 0 355 0 0 3500 0 3500 -355 0 -355 0 0 -3500z"/>
<path d="M4109 6336 c-2 -2 -42 -6 -89 -10 -133 -10 -288 -31 -350 -46 -19 -5
-48 -11 -65 -13 -16 -3 -59 -12 -95 -22 -446 -114 -852 -320 -1172 -592 -84
-72 -331 -326 -368 -380 -8 -11 -35 -47 -60 -80 -234 -301 -424 -737 -496
-1133 -1 -8 -8 -51 -14 -95 -7 -44 -14 -91 -16 -105 -23 -142 -22 -548 2 -730
13 -105 39 -256 55 -320 56 -224 111 -374 214 -585 240 -491 584 -868 1041
-1143 92 -55 315 -172 328 -172 3 0 29 -11 58 -24 139 -62 422 -143 605 -172
21 -3 41 -8 44 -9 3 -2 39 -7 80 -11 41 -3 77 -8 80 -10 29 -17 535 -25 704
-11 110 9 275 33 370 54 39 8 83 17 98 20 51 8 249 69 352 108 257 96 548 262
729 415 67 58 144 129 206 193 l66 69 -120 118 c-67 65 -150 146 -186 180 -36
34 -97 94 -137 133 l-72 70 -72 -72 c-40 -40 -93 -89 -118 -109 -25 -21 -55
-45 -66 -55 -84 -78 -360 -235 -510 -292 -129 -48 -369 -106 -504 -120 -129
-14 -149 -15 -286 -15 -162 -1 -224 4 -387 26 -116 16 -352 73 -423 103 -11 5
-51 21 -90 36 -141 56 -425 218 -487 278 -7 7 -26 23 -43 35 -123 94 -303 290
-401 436 -157 232 -279 533 -319 791 -33 209 -45 460 -30 615 11 102 26 215
35 265 6 28 12 59 14 70 21 111 91 303 161 447 197 401 500 707 900 913 66 34
154 74 195 89 41 16 84 32 95 37 11 4 38 13 60 19 194 54 269 68 500 95 58 7
350 7 420 0 494 -49 936 -247 1273 -570 40 -38 77 -71 80 -73 4 -1 54 43 112
99 291 280 400 388 400 396 0 14 -195 202 -280 269 -200 161 -426 289 -675
383 -33 13 -69 27 -80 31 -109 46 -393 119 -530 136 -27 3 -53 8 -56 10 -3 1
-39 6 -80 10 -41 3 -83 8 -94 11 -23 5 -501 14 -506 9z"/>
</g>
</svg>
